<svg width="16" height="16" viewBox="0 0 16 16" fill="none" xmlns="http://www.w3.org/2000/svg">
<path d="M14.4975 1.54C14.45 1.3975 14.34 1.285 14.2 1.2325C14.0575 1.1825 13.9025 1.195 13.7725 1.27C10.405 3.2425 8.07745 0.32 7.98245 0.195C7.88745 0.0725 7.73995 0 7.58495 0C7.42995 0 7.28495 0.0725 7.18995 0.195C7.09245 0.32 4.76495 3.2425 1.39745 1.27C1.26745 1.195 1.11245 1.1825 0.969952 1.2325C0.829952 1.285 0.719952 1.3975 0.672452 1.54C0.599952 1.7475 -1.05255 6.695 1.10745 10.975C2.30495 13.3475 4.43245 15.03 7.43495 15.9775C7.48245 15.9925 7.53495 16 7.58495 16C7.63495 16 7.68745 15.9925 7.73495 15.9775C10.7375 15.03 12.865 13.3475 14.0625 10.975C16.2225 6.695 14.57 1.7475 14.4975 1.54ZM11.3575 6.19L7.02745 10.5175C6.93495 10.6125 6.80745 10.665 6.67495 10.665C6.54245 10.665 6.41495 10.6125 6.32245 10.5175L3.81245 8.01C3.61745 7.815 3.61745 7.4975 3.81245 7.3025C4.00995 7.1075 4.32495 7.1075 4.51995 7.3025L6.67495 9.4575L10.65 5.4825C10.845 5.2875 11.16 5.2875 11.3575 5.4825C11.5525 5.6775 11.5525 5.995 11.3575 6.19Z" fill="#1E0044"/>
</svg>
