<svg width="19" height="25" viewBox="0 0 19 25" fill="none" xmlns="http://www.w3.org/2000/svg">
<path d="M18.5807 20.0739L17.9665 7.03799C17.9402 6.47959 17.4798 6.04038 16.9208 6.04038H13.65V4.15024C13.6499 1.86182 11.7882 0 9.49978 0C7.21135 0 5.34954 1.86182 5.34954 4.15024V6.04038H2.07869C1.51965 6.04038 1.0593 6.47959 1.03298 7.03799L0.418726 20.0739C0.357593 21.3711 0.817603 22.6031 1.71409 23.5428C2.61057 24.4825 3.81956 25 5.11824 25H13.8812C15.1799 25 16.3889 24.4825 17.2854 23.5428C18.1819 22.6031 18.6419 21.3711 18.5807 20.0739ZM7.44333 4.15024C7.44333 3.01631 8.36584 2.0938 9.49978 2.0938C10.6337 2.0938 11.5562 3.01631 11.5562 4.15024V6.04038H7.44333V4.15024ZM15.7704 22.0975C15.273 22.619 14.602 22.9062 13.8813 22.9062H5.11824C4.39749 22.9062 3.72659 22.619 3.22908 22.0975C2.73162 21.576 2.47629 20.8923 2.51023 20.1724L3.07751 8.13413H15.922L16.4893 20.1724C16.5232 20.8923 16.2679 21.576 15.7704 22.0975Z" fill="#171717"/>
</svg>
