<svg width="13" height="12" viewBox="0 0 13 12" fill="none" xmlns="http://www.w3.org/2000/svg">
<path d="M6.15779 0.72545C6.36734 0.080532 7.27972 0.0805318 7.48927 0.725449L8.42286 3.59875C8.51657 3.88717 8.78534 4.08244 9.0886 4.08244H12.1098C12.7879 4.08244 13.0698 4.95017 12.5212 5.34875L10.077 7.12455C9.8317 7.3028 9.72904 7.61876 9.82275 7.90717L10.7563 10.7805C10.9659 11.4254 10.2278 11.9617 9.67916 11.5631L7.23498 9.7873C6.98964 9.60905 6.65742 9.60905 6.41208 9.7873L3.9679 11.5631C3.4193 11.9617 2.68117 11.4254 2.89071 10.7805L3.82431 7.90717C3.91802 7.61876 3.81536 7.3028 3.57002 7.12455L1.12584 5.34875C0.57724 4.95017 0.859182 4.08244 1.53729 4.08244H4.55846C4.86172 4.08244 5.13049 3.88717 5.2242 3.59875L6.15779 0.72545Z" fill="#FFCA00"/>
</svg>
