<svg width="17" height="17" viewBox="0 0 17 17" fill="none" xmlns="http://www.w3.org/2000/svg">
<path fill-rule="evenodd" clip-rule="evenodd" d="M0.772727 0C0.345965 0 0 0.36244 0 0.809524C0 1.25661 0.345965 1.61905 0.772727 1.61905H4.63636C5.06313 1.61905 5.40909 1.98149 5.40909 2.42857C5.40909 2.87566 5.06313 3.2381 4.63636 3.2381H0.772727C0.345965 3.2381 0 3.60054 0 4.04762C0 4.4947 0.345965 4.85714 0.772727 4.85714H5.40909C5.83586 4.85714 6.18182 5.21958 6.18182 5.66667C6.18182 6.11375 5.83586 6.47619 5.40909 6.47619H1.54545C1.11869 6.47619 0.772727 6.83861 0.772727 7.28571C0.772727 7.73281 1.11869 8.09524 1.54545 8.09524H9.27273C9.6995 8.09524 10.0455 8.45766 10.0455 8.90476V12.1429C10.0455 12.59 9.6995 12.9524 9.27273 12.9524H6.69428C6.26021 11.9951 5.32888 11.3333 4.25 11.3333C3.17112 11.3333 2.23979 11.9951 1.80572 12.9524H0.772727C0.345965 12.9524 0 13.3148 0 13.7619C0 14.209 0.345965 14.5714 0.772727 14.5714H1.57284C1.76032 15.9445 2.8875 17 4.25 17C5.6125 17 6.73968 15.9445 6.92716 14.5714H10.0728C10.2604 15.9445 11.3875 17 12.75 17C14.1564 17 15.3121 15.8753 15.4423 14.4377C16.3491 14.108 17 13.205 17 12.1429V9.35324C17 8.91302 16.8858 8.48114 16.6697 8.10374L15.0219 5.2267C14.6029 4.4952 13.8484 4.04762 13.0341 4.04762H11.5909V2.42857C11.5909 1.08731 10.5531 0 9.27273 0H0.772727ZM11.5909 11.606C11.9422 11.4311 12.3352 11.3333 12.75 11.3333C12.8812 11.3333 13.0102 11.3431 13.1364 11.362C13.9947 11.4906 14.723 12.0414 15.1234 12.8072C15.3236 12.6609 15.4545 12.4179 15.4545 12.1429V10.5238C15.4545 10.0767 15.1086 9.71429 14.6818 9.71429H12.3636C11.9369 9.71429 11.5909 10.0767 11.5909 10.5238V11.606ZM11.5909 14.1667C11.5909 14.8373 12.1099 15.381 12.75 15.381C13.3901 15.381 13.9091 14.8373 13.9091 14.1667C13.9091 13.4961 13.3901 12.9524 12.75 12.9524C12.1099 12.9524 11.5909 13.4961 11.5909 14.1667ZM3.09091 14.1667C3.09091 13.4961 3.60985 12.9524 4.25 12.9524C4.89015 12.9524 5.40909 13.4961 5.40909 14.1667C5.40909 14.8373 4.89015 15.381 4.25 15.381C3.60985 15.381 3.09091 14.8373 3.09091 14.1667Z" fill="#1E0044"/>
</svg>
